<svg width="16" height="16" viewBox="0 0 16 16" fill="none" xmlns="http://www.w3.org/2000/svg">
<path d="M8.00016 14.6667C4.32683 14.6667 1.3335 11.6734 1.3335 8.00004C1.3335 4.32671 4.32683 1.33337 8.00016 1.33337C11.6735 1.33337 14.6668 4.02671 14.6668 7.33337C14.6668 9.54004 12.8735 11.3334 10.6668 11.3334H9.48683C9.30016 11.3334 9.1535 11.48 9.1535 11.6667C9.1535 11.7467 9.18683 11.82 9.24016 11.8867C9.5135 12.2 9.66683 12.5934 9.66683 13C9.66683 13.4421 9.49123 13.866 9.17867 14.1786C8.86611 14.4911 8.44219 14.6667 8.00016 14.6667ZM8.00016 2.66671C5.06016 2.66671 2.66683 5.06004 2.66683 8.00004C2.66683 10.94 5.06016 13.3334 8.00016 13.3334C8.18683 13.3334 8.3335 13.1867 8.3335 13C8.33142 12.9136 8.29829 12.8307 8.24016 12.7667C7.96683 12.46 7.82016 12.0667 7.82016 11.6667C7.82016 11.2247 7.99576 10.8008 8.30832 10.4882C8.62088 10.1756 9.0448 10 9.48683 10H10.6668C12.1402 10 13.3335 8.80671 13.3335 7.33337C13.3335 4.76004 10.9402 2.66671 8.00016 2.66671Z" fill="#CCCCCC"/>
<path d="M4.3335 8.66663C4.88578 8.66663 5.3335 8.21891 5.3335 7.66663C5.3335 7.11434 4.88578 6.66663 4.3335 6.66663C3.78121 6.66663 3.3335 7.11434 3.3335 7.66663C3.3335 8.21891 3.78121 8.66663 4.3335 8.66663Z" fill="#CCCCCC"/>
<path d="M6.3335 6C6.88578 6 7.3335 5.55228 7.3335 5C7.3335 4.44772 6.88578 4 6.3335 4C5.78121 4 5.3335 4.44772 5.3335 5C5.3335 5.55228 5.78121 6 6.3335 6Z" fill="#CCCCCC"/>
<path d="M9.6665 6C10.2188 6 10.6665 5.55228 10.6665 5C10.6665 4.44772 10.2188 4 9.6665 4C9.11422 4 8.6665 4.44772 8.6665 5C8.6665 5.55228 9.11422 6 9.6665 6Z" fill="#CCCCCC"/>
<path d="M11.6665 8.66663C12.2188 8.66663 12.6665 8.21891 12.6665 7.66663C12.6665 7.11434 12.2188 6.66663 11.6665 6.66663C11.1142 6.66663 10.6665 7.11434 10.6665 7.66663C10.6665 8.21891 11.1142 8.66663 11.6665 8.66663Z" fill="#CCCCCC"/>
</svg>
