<svg width="18" height="18" viewBox="0 0 18 18" fill="none" xmlns="http://www.w3.org/2000/svg">
<path d="M3.82351 4.76477H2.88234C2.38311 4.76477 1.90433 4.96309 1.55132 5.3161C1.19832 5.66911 1 6.14789 1 6.64712V15.1177C1 15.6169 1.19832 16.0957 1.55132 16.4487C1.90433 16.8017 2.38311 17.0001 2.88234 17.0001H11.3529C11.8521 17.0001 12.3309 16.8017 12.6839 16.4487C13.0369 16.0957 13.2352 15.6169 13.2352 15.1177V14.1765" stroke="#9A9AFF" stroke-width="2" stroke-linecap="round" stroke-linejoin="round"/>
<path d="M12.2942 2.88245L15.1178 5.70598M16.4213 4.37422C16.792 4.00354 17.0002 3.50079 17.0002 2.97657C17.0002 2.45235 16.792 1.9496 16.4213 1.57892C16.0506 1.20825 15.5479 1 15.0236 1C14.4994 1 13.9967 1.20825 13.626 1.57892L5.70605 9.47069V12.2942H8.52957L16.4213 4.37422Z" stroke="#9A9AFF" stroke-width="2" stroke-linecap="round" stroke-linejoin="round"/>
</svg>
