<svg width="14" height="14" viewBox="0 0 14 14" fill="none" xmlns="http://www.w3.org/2000/svg">
<path d="M8.32141 0.949049C8.32141 3.01697 9.41166 4.05647 10.3508 5.04463C11.2492 5.98963 12.1043 6.88972 12.1043 8.60413C12.1043 11.4111 9.91508 13.4166 7.10808 13.4166C4.3005 13.4166 1.896 11.421 1.896 8.60413C1.896 7.41472 2.45716 6.26438 3.35958 5.74638C3.5375 5.6443 3.75158 5.75047 3.828 5.94122C4.41191 7.39897 5.13175 7.3733 5.50508 6.99997C5.73141 6.77422 5.77925 6.34897 5.50275 5.79713C4.09983 2.99013 6.5895 0.967715 7.95275 0.632299C8.14875 0.584465 8.3115 0.747799 8.32141 0.949049ZM7.10808 12.5416C9.47583 12.5416 11.2293 10.885 11.2293 8.60413C11.2293 7.24088 10.5917 6.56888 9.66716 5.5953L9.65491 5.58188C8.81491 4.69697 7.82383 3.62713 7.52633 1.75697C7.08588 2.0159 6.70581 2.36593 6.41158 2.78363C5.9525 3.45097 5.7425 4.31955 6.28558 5.40572C6.63733 6.10863 6.73883 7.00405 6.124 7.61888C5.74075 8.00213 5.09616 8.26055 4.39966 7.96072C3.961 7.77172 3.61041 7.40363 3.3275 6.91655C2.99675 7.32838 2.771 7.93155 2.771 8.60413C2.771 10.8482 4.689 12.5416 7.10808 12.5416Z" fill="#FFA000"/>
</svg>
