<svg width="16" height="16" viewBox="0 0 16 16" fill="none" xmlns="http://www.w3.org/2000/svg">
<path d="M10 12.6666C10 11.1933 8.20933 9.99996 6 9.99996C3.79067 9.99996 2 11.1933 2 12.6666M12.6667 10.6666V8.66663M12.6667 8.66663V6.66663M12.6667 8.66663H10.6667M12.6667 8.66663H14.6667M6 7.99996C5.29276 7.99996 4.61448 7.71901 4.11438 7.21891C3.61428 6.71881 3.33333 6.04054 3.33333 5.33329C3.33333 4.62605 3.61428 3.94777 4.11438 3.44767C4.61448 2.94758 5.29276 2.66663 6 2.66663C6.70724 2.66663 7.38552 2.94758 7.88562 3.44767C8.38572 3.94777 8.66667 4.62605 8.66667 5.33329C8.66667 6.04054 8.38572 6.71881 7.88562 7.21891C7.38552 7.71901 6.70724 7.99996 6 7.99996Z" stroke="#828486" stroke-width="2" stroke-linecap="round" stroke-linejoin="round"/>
</svg>
