<svg width="16" height="16" viewBox="0 0 16 16" fill="none" xmlns="http://www.w3.org/2000/svg">
<path d="M1.3335 14.6666C1.3335 13.2521 1.8954 11.8956 2.89559 10.8954C3.89579 9.8952 5.25234 9.33329 6.66683 9.33329C8.08132 9.33329 9.43787 9.8952 10.4381 10.8954C11.4383 11.8956 12.0002 13.2521 12.0002 14.6666H10.6668C10.6668 13.6058 10.2454 12.5883 9.49526 11.8382C8.74511 11.0881 7.7277 10.6666 6.66683 10.6666C5.60596 10.6666 4.58855 11.0881 3.8384 11.8382C3.08826 12.5883 2.66683 13.6058 2.66683 14.6666H1.3335ZM6.66683 8.66663C4.45683 8.66663 2.66683 6.87663 2.66683 4.66663C2.66683 2.45663 4.45683 0.666626 6.66683 0.666626C8.87683 0.666626 10.6668 2.45663 10.6668 4.66663C10.6668 6.87663 8.87683 8.66663 6.66683 8.66663ZM6.66683 7.33329C8.14016 7.33329 9.3335 6.13996 9.3335 4.66663C9.3335 3.19329 8.14016 1.99996 6.66683 1.99996C5.1935 1.99996 4.00016 3.19329 4.00016 4.66663C4.00016 6.13996 5.1935 7.33329 6.66683 7.33329ZM12.1895 9.80196C13.1265 10.2238 13.9217 10.9073 14.4794 11.7703C15.0372 12.6333 15.3338 13.6391 15.3335 14.6666H14.0002C14.0004 13.8959 13.778 13.1416 13.3597 12.4943C12.9413 11.847 12.3449 11.3343 11.6422 11.018L12.1895 9.80196ZM11.7308 2.27529C12.4025 2.55216 12.9768 3.02232 13.3808 3.62611C13.7849 4.22991 14.0004 4.94012 14.0002 5.66663C14.0003 6.58147 13.6584 7.46332 13.0417 8.13902C12.4249 8.81472 11.5779 9.23546 10.6668 9.31863V7.97663C11.1608 7.90588 11.6191 7.67864 11.9744 7.32827C12.3297 6.97789 12.5633 6.52284 12.6409 6.02992C12.7186 5.53699 12.6361 5.03216 12.4058 4.58953C12.1754 4.1469 11.8091 3.78979 11.3608 3.57063L11.7308 2.27529Z" fill="#CCCCCC"/>
</svg>
