<svg width="24" height="24" viewBox="0 0 24 24" fill="none" xmlns="http://www.w3.org/2000/svg">
<path fill-rule="evenodd" clip-rule="evenodd" d="M12.5942 23.2579L12.5822 23.2599L12.5112 23.2949L12.4912 23.2989L12.4772 23.2949L12.4062 23.2589C12.3955 23.2563 12.3875 23.2583 12.3822 23.2649L12.3782 23.2749L12.3612 23.7029L12.3662 23.7229L12.3762 23.7359L12.4802 23.8099L12.4952 23.8139L12.5072 23.8099L12.6112 23.7359L12.6232 23.7199L12.6272 23.7029L12.6102 23.2759C12.6075 23.2653 12.6022 23.2593 12.5942 23.2579ZM12.8582 23.1449L12.8442 23.1469L12.6602 23.2399L12.6502 23.2499L12.6472 23.2609L12.6652 23.6909L12.6702 23.7029L12.6782 23.7109L12.8792 23.8029C12.8918 23.8063 12.9015 23.8036 12.9082 23.7949L12.9122 23.7809L12.8782 23.1669C12.8748 23.1543 12.8682 23.1469 12.8582 23.1449ZM12.1432 23.1469C12.1388 23.1443 12.1335 23.1434 12.1285 23.1445C12.1234 23.1456 12.119 23.1487 12.1162 23.1529L12.1102 23.1669L12.0762 23.7809C12.0768 23.7929 12.0825 23.8009 12.0932 23.8049L12.1082 23.8029L12.3092 23.7099L12.3192 23.7019L12.3222 23.6909L12.3402 23.2609L12.3372 23.2489L12.3272 23.2389L12.1432 23.1469Z" fill="#94A3B8"/>
<path fill-rule="evenodd" clip-rule="evenodd" d="M5.00017 9C5.00017 7.14348 5.73767 5.36301 7.05043 4.05025C8.36318 2.7375 10.1437 2 12.0002 2C13.8567 2 15.6372 2.7375 16.9499 4.05025C18.2627 5.36301 19.0002 7.14348 19.0002 9V12.764L20.8222 16.408C20.906 16.5757 20.9457 16.7621 20.9372 16.9494C20.9288 17.1368 20.8726 17.3188 20.774 17.4783C20.6754 17.6379 20.5377 17.7695 20.3739 17.8608C20.2101 17.9521 20.0257 18 19.8382 18H15.8742C15.6517 18.8582 15.1506 19.6183 14.4494 20.1609C13.7483 20.7035 12.8868 20.9979 12.0002 20.9979C11.1136 20.9979 10.2521 20.7035 9.55091 20.1609C8.84975 19.6183 8.34861 18.8582 8.12617 18H4.16217C3.97465 18 3.79024 17.9521 3.62644 17.8608C3.46265 17.7695 3.32491 17.6379 3.22632 17.4783C3.12773 17.3188 3.07155 17.1368 3.06312 16.9494C3.0547 16.7621 3.0943 16.5757 3.17817 16.408L5.00017 12.764V9ZM10.2682 18C10.4437 18.304 10.6962 18.5565 11.0002 18.732C11.3042 18.9075 11.6491 18.9999 12.0002 18.9999C12.3512 18.9999 12.6961 18.9075 13.0001 18.732C13.3042 18.5565 13.5566 18.304 13.7322 18H10.2682ZM12.0002 4C10.6741 4 9.40232 4.52678 8.46464 5.46447C7.52696 6.40215 7.00017 7.67392 7.00017 9V12.764C7.00015 13.0743 6.92792 13.3804 6.78917 13.658L5.61917 16H18.3822L17.2122 13.658C17.0731 13.3805 17.0005 13.0744 17.0002 12.764V9C17.0002 7.67392 16.4734 6.40215 15.5357 5.46447C14.598 4.52678 13.3263 4 12.0002 4Z" fill="#94A3B8"/>
</svg>
