<svg width="16" height="16" viewBox="0 0 16 16" fill="none" xmlns="http://www.w3.org/2000/svg">
<path d="M5.31336 6.59071H10.6867M5.31336 9.40938H9.14536M8.00003 14.1667C9.33962 14.1664 10.6427 13.7299 11.7122 12.9233C12.7816 12.1166 13.5593 10.9836 13.9277 9.69563C14.296 8.40767 14.2349 7.0348 13.7537 5.78464C13.2724 4.53448 12.3972 3.47503 11.2603 2.76652C10.1234 2.058 8.78672 1.73895 7.4524 1.85763C6.11808 1.9763 4.85868 2.52624 3.86469 3.42428C2.87069 4.32231 2.19615 5.5196 1.94308 6.83507C1.69001 8.15054 1.87218 9.51264 2.46203 10.7154C2.53403 10.862 2.55803 11.0274 2.52137 11.186L1.97737 13.5434C1.96203 13.6095 1.96379 13.6785 1.98248 13.7438C2.00117 13.8091 2.03617 13.8685 2.08419 13.9166C2.13221 13.9646 2.19166 13.9996 2.25695 14.0183C2.32224 14.037 2.39121 14.0387 2.45737 14.0234L4.81403 13.4787C4.97315 13.4439 5.13941 13.4651 5.2847 13.5387C6.12963 13.9536 7.05872 14.1685 8.00003 14.1667Z" stroke="#828486" stroke-width="1.5" stroke-linecap="round" stroke-linejoin="round"/>
</svg>
