<svg width="16" height="16" viewBox="0 0 16 16" fill="none" xmlns="http://www.w3.org/2000/svg">
<path fill-rule="evenodd" clip-rule="evenodd" d="M3.3335 0.833374C3.4661 0.833374 3.59328 0.886052 3.68705 0.979821C3.78082 1.07359 3.8335 1.20077 3.8335 1.33337V2.05671L4.88283 1.84671C6.07837 1.60789 7.31756 1.72185 8.4495 2.17471L8.58483 2.22871C9.52799 2.60589 10.566 2.67634 11.5515 2.43004C11.7432 2.38212 11.9432 2.37851 12.1365 2.4195C12.3298 2.46049 12.5112 2.54499 12.6669 2.66659C12.8226 2.78818 12.9486 2.94367 13.0352 3.12125C13.1218 3.29882 13.1669 3.4938 13.1668 3.69137V8.60271C13.1668 9.26137 12.7182 9.83604 12.0788 9.99604L11.9362 10.0314C10.6544 10.3517 9.30423 10.26 8.0775 9.76937C7.12577 9.38884 6.08394 9.29319 5.07883 9.49404L3.8335 9.74337V14.6667C3.8335 14.7993 3.78082 14.9265 3.68705 15.0203C3.59328 15.114 3.4661 15.1667 3.3335 15.1667C3.20089 15.1667 3.07371 15.114 2.97994 15.0203C2.88617 14.9265 2.8335 14.7993 2.8335 14.6667V1.33337C2.8335 1.20077 2.88617 1.07359 2.97994 0.979821C3.07371 0.886052 3.20089 0.833374 3.3335 0.833374ZM3.8335 8.72337L4.88283 8.51337C6.07837 8.27456 7.31756 8.38851 8.4495 8.84137C9.48087 9.25367 10.6159 9.33064 11.6935 9.06137L11.8368 9.02537C11.9311 9.00176 12.0147 8.94734 12.0745 8.87077C12.1343 8.7942 12.1668 8.69985 12.1668 8.60271V3.69137C12.1669 3.64577 12.1565 3.60076 12.1365 3.55975C12.1166 3.51875 12.0875 3.48284 12.0516 3.45476C12.0157 3.42667 11.9738 3.40714 11.9292 3.39766C11.8846 3.38818 11.8384 3.38899 11.7942 3.40004C10.6048 3.69744 9.35189 3.61254 8.2135 3.15737L8.0775 3.10271C7.12577 2.72218 6.08394 2.62652 5.07883 2.82737L3.8335 3.07671V8.72337Z" fill="#DC2626"/>
</svg>
