<svg width="16" height="16" viewBox="0 0 16 16" fill="none" xmlns="http://www.w3.org/2000/svg">
<g clip-path="url(#clip0_304_219)">
<path d="M7.99965 0.959961C7.2934 0.959961 6.71965 1.53371 6.71965 2.23996C6.71965 2.83496 7.12965 3.33121 7.67965 3.47496V4.47996H4.80965C3.39215 4.47996 2.23965 5.63246 2.23965 7.04996V8.31996H0.639648V12.16H2.23965V15.04H13.7596V12.16H15.3596V8.31996H13.7596V7.04996C13.7596 5.63246 12.6071 4.47996 11.1896 4.47996H8.31965V3.47496C8.8709 3.33121 9.27965 2.83496 9.27965 2.23996C9.27965 1.53371 8.7059 0.959961 7.99965 0.959961ZM7.99965 1.59996C8.35215 1.59996 8.63965 1.88746 8.63965 2.23996C8.63965 2.59246 8.35215 2.87996 7.99965 2.87996C7.64715 2.87996 7.35965 2.59246 7.35965 2.23996C7.35965 1.88746 7.64715 1.59996 7.99965 1.59996ZM4.80965 5.11996H11.1896C12.2534 5.11996 13.1196 5.98621 13.1196 7.04996V14.4H11.1996V11.84H4.79965V14.4H2.87965V7.04996C2.87965 5.98621 3.7459 5.11996 4.80965 5.11996ZM5.91965 7.03996C5.1259 7.03996 4.47965 7.68621 4.47965 8.47996C4.47965 9.27371 5.1259 9.91996 5.91965 9.91996C6.7134 9.91996 7.35965 9.27371 7.35965 8.47996C7.35965 7.68621 6.7134 7.03996 5.91965 7.03996ZM10.0796 7.03996C9.2859 7.03996 8.63965 7.68621 8.63965 8.47996C8.63965 9.27371 9.2859 9.91996 10.0796 9.91996C10.8734 9.91996 11.5196 9.27371 11.5196 8.47996C11.5196 7.68621 10.8734 7.03996 10.0796 7.03996ZM5.91965 7.67996C6.3609 7.67996 6.71965 8.03871 6.71965 8.47996C6.71965 8.92121 6.3609 9.27996 5.91965 9.27996C5.4784 9.27996 5.11965 8.92121 5.11965 8.47996C5.11965 8.03871 5.4784 7.67996 5.91965 7.67996ZM10.0796 7.67996C10.5209 7.67996 10.8796 8.03871 10.8796 8.47996C10.8796 8.92121 10.5209 9.27996 10.0796 9.27996C9.6384 9.27996 9.27965 8.92121 9.27965 8.47996C9.27965 8.03871 9.6384 7.67996 10.0796 7.67996ZM1.27965 8.95996H2.23965V11.52H1.27965V8.95996ZM13.7596 8.95996H14.7196V11.52H13.7596V8.95996ZM5.43965 12.48H6.71965V14.4H5.43965V12.48ZM7.35965 12.48H8.63965V14.4H7.35965V12.48ZM9.27965 12.48H10.5596V14.4H9.27965V12.48Z" fill="#0070F0"/>
</g>
<defs>
<clipPath id="clip0_304_219">
<rect width="16" height="16" fill="white"/>
</clipPath>
</defs>
</svg>
